<mxfile host="app.diagrams.net" modified="2021-09-12T01:23:31.113Z" agent="5.0 (Windows NT 10.0; WOW64) AppleWebKit/537.36 (KHTML, like Gecko) Chrome/92.0.4515.131 Safari/537.36" etag="JfGcpx2wveCtCGbMPevX" version="15.1.4" type="github">
  <diagram id="R2lEEEUBdFMjLlhIrx00" name="Page-1">
    <mxGraphModel dx="942" dy="642" grid="1" gridSize="10" guides="1" tooltips="1" connect="1" arrows="1" fold="1" page="1" pageScale="1" pageWidth="850" pageHeight="1100" math="0" shadow="0" extFonts="Permanent Marker^https://fonts.googleapis.com/css?family=Permanent+Marker">
      <root>
        <mxCell id="0" />
        <mxCell id="1" parent="0" />
        <mxCell id="WFDDmIy2O6VV4Cr1vWT4-3" value="1:M" style="edgeStyle=orthogonalEdgeStyle;rounded=0;orthogonalLoop=1;jettySize=auto;html=1;" edge="1" parent="1" source="WFDDmIy2O6VV4Cr1vWT4-1" target="WFDDmIy2O6VV4Cr1vWT4-2">
          <mxGeometry relative="1" as="geometry" />
        </mxCell>
        <mxCell id="WFDDmIy2O6VV4Cr1vWT4-7" value="1:M" style="edgeStyle=orthogonalEdgeStyle;rounded=0;orthogonalLoop=1;jettySize=auto;html=1;" edge="1" parent="1" source="WFDDmIy2O6VV4Cr1vWT4-1" target="WFDDmIy2O6VV4Cr1vWT4-6">
          <mxGeometry relative="1" as="geometry" />
        </mxCell>
        <mxCell id="WFDDmIy2O6VV4Cr1vWT4-17" value="1:M" style="rounded=0;orthogonalLoop=1;jettySize=auto;html=1;exitX=1;exitY=1;exitDx=0;exitDy=0;entryX=0;entryY=0;entryDx=0;entryDy=0;" edge="1" parent="1" source="WFDDmIy2O6VV4Cr1vWT4-1" target="WFDDmIy2O6VV4Cr1vWT4-8">
          <mxGeometry relative="1" as="geometry">
            <mxPoint x="290" y="230" as="targetPoint" />
          </mxGeometry>
        </mxCell>
        <mxCell id="WFDDmIy2O6VV4Cr1vWT4-1" value="Branch" style="rounded=0;whiteSpace=wrap;html=1;" vertex="1" parent="1">
          <mxGeometry x="100" y="130" width="120" height="60" as="geometry" />
        </mxCell>
        <mxCell id="WFDDmIy2O6VV4Cr1vWT4-21" value="1:M" style="edgeStyle=none;rounded=0;orthogonalLoop=1;jettySize=auto;html=1;" edge="1" parent="1" source="WFDDmIy2O6VV4Cr1vWT4-2" target="WFDDmIy2O6VV4Cr1vWT4-8">
          <mxGeometry relative="1" as="geometry" />
        </mxCell>
        <mxCell id="WFDDmIy2O6VV4Cr1vWT4-2" value="Teller" style="whiteSpace=wrap;html=1;rounded=0;" vertex="1" parent="1">
          <mxGeometry x="320" y="130" width="120" height="60" as="geometry" />
        </mxCell>
        <mxCell id="WFDDmIy2O6VV4Cr1vWT4-20" value="1:M" style="edgeStyle=none;rounded=0;orthogonalLoop=1;jettySize=auto;html=1;" edge="1" parent="1" source="WFDDmIy2O6VV4Cr1vWT4-6" target="WFDDmIy2O6VV4Cr1vWT4-8">
          <mxGeometry relative="1" as="geometry" />
        </mxCell>
        <mxCell id="WFDDmIy2O6VV4Cr1vWT4-6" value="Account" style="rounded=0;whiteSpace=wrap;html=1;" vertex="1" parent="1">
          <mxGeometry x="100" y="300" width="120" height="60" as="geometry" />
        </mxCell>
        <mxCell id="WFDDmIy2O6VV4Cr1vWT4-8" value="History" style="rounded=0;whiteSpace=wrap;html=1;" vertex="1" parent="1">
          <mxGeometry x="320" y="300" width="120" height="60" as="geometry" />
        </mxCell>
      </root>
    </mxGraphModel>
  </diagram>
</mxfile>
